<?xml version="1.0" encoding="UTF-8"?>
<svg id="Layer_1" data-name="Layer 1" xmlns="http://www.w3.org/2000/svg" viewBox="0 0 307.4 307.4">
  <path d="M290.85,147.55c.1,2.4.2,4.8.2,7.3-.1,75.6-61.6,137.1-137.3,137.1-35.1,0-68.5-13.3-94.1-37.3-1.6-1.5-1.7-4-.2-5.6s4-1.7,5.7-.2c24.1,22.7,55.5,35.2,88.6,35.2,71.3,0,129.3-58,129.3-129.2,0-2.3-.1-4.6-.2-6.9-.1-2.2,1.6-4.1,3.8-4.2s4.1,1.6,4.2,3.8Z"/>
  <path d="M284.75,107.25v31.6h-39.8v104.1l-1.4.4c-1.4.4-10.9.6-19.6.6-6.7,0-13-.1-14.9-.3l-1.8-.2v-102.3c0-.5,0-1.6-.1-2.1-.5-.1-1.5-.1-2-.1-2.4,0-4.5.2-6.3.4-4,.5-6.1,2.5-6.7,6.4-.1.5-.2.8-.3,1.2l-.1.1c-.2.7-.8,1-1,1.2l-1.1.8-10.7-5.8v98c0,.9-.4,1.4-.6,1.7,0,.1-.1.1-.1.2l-.7,1.2h-6.6c-1.15,0-2-.42-2.61-.94-.61-.51-.99-1.11-1.19-1.46,0-.1-.1-.2-.2-.3-3.3-4.8-6.6-9.6-9.9-14.4L57.65,83.25v161h-10.7l-.6-1.8c-.1-.5-.5-1.7-.6-89,0-32.3,0-87.9.3-90.8l.2-1.7,1.6-.5c2-.6,4.1-.6,6.8-.2,1.7.3,2.8,1.8,3.4,2.6,2.7,3.9,5.4,7.9,8.2,11.8l2.9,4.2,97.4,141.6c.2.3.4.5.5.8l.1.1V60.35h10.1l.7.8.2.2c.5.5.8,1.1.8,1.8v.6c0,.7.1,1.3.1,2v44.3c2.2-1.1,4.7-1.8,7.6-2.3,2-.3,4.3-.5,6.8-.5h91.3Z"/>
  <path d="M278.15,96.55c.9,2,.1,4.4-1.9,5.3-.6.4-1.2.5-1.7.5-1.5,0-2.9-.9-3.6-2.3-21.2-45.3-67.2-74.6-117.2-74.6-32.3,0-63.3,12-87.1,33.8-1.6,1.5-4.2,1.4-5.7-.3-1.5-1.6-1.4-4.2.2-5.7,25.3-23.1,58.2-35.9,92.5-35.9,26.6,0,52.4,7.6,74.7,22.1,21.6,14.1,38.8,33.8,49.8,57.1Z"/>
  <path d="M153.75.25c84.7,0,153.4,68.7,153.4,153.4s-68.7,153.5-153.4,153.5S.25,238.45.25,153.65,68.95.25,153.75.25ZM300.05,153.65c0-80.8-65.5-146.3-146.3-146.3S7.45,72.85,7.45,153.65s65.5,146.3,146.3,146.3,146.3-65.5,146.3-146.3Z"/>
  <path d="M41.75,219.35c1.1,1.9.5,4.4-1.5,5.5-.6.3-1.3.5-1.9.5-1.4,0-2.7-.7-3.5-2-12-20.8-18.4-44.5-18.4-68.6s6.3-47.7,18.2-68.4c1.1-1.9,3.5-2.6,5.5-1.5,1.9,1.1,2.6,3.6,1.5,5.5-11.2,19.5-17.2,41.8-17.2,64.4s6,45.1,17.3,64.6Z"/>
</svg>