<?xml version="1.0" encoding="UTF-8"?>
<svg id="Layer_1" data-name="Layer 1" xmlns="http://www.w3.org/2000/svg" viewBox="0 0 1740.61 294.68">
  <defs>
    <style>
      .cls-1 {
        fill: #008ce2;
      }

      .cls-2 {
        fill: #7c7c7c;
      }

      .cls-3, .cls-4, .cls-5, .cls-6, .cls-7, .cls-8, .cls-9, .cls-10, .cls-11 {
        stroke: #000;
        stroke-miterlimit: 10;
      }

      .cls-3, .cls-12 {
        fill: none;
      }

      .cls-4 {
        fill: #ff9a6e;
      }

      .cls-13, .cls-6 {
        fill: #fff;
      }

      .cls-5 {
        fill: #f2ff73;
      }

      .cls-14 {
        fill: #424242;
      }

      .cls-15 {
        fill: #c4c4c4;
      }

      .cls-7 {
        fill: #ff2468;
      }

      .cls-8 {
        fill: #83ffbb;
      }

      .cls-9 {
        fill: #d3d3d3;
      }

      .cls-10 {
        fill: #fa45ff;
      }

      .cls-16 {
        fill: #7a7a7a;
      }

      .cls-11 {
        fill: #7b7bff;
      }
    </style>
  </defs>
  <line class="cls-3" x1="977.26" y1="102.92" x2="975.34" y2="104.02"/>
  <path class="cls-16" d="M1698.98,113.7c-19.95,10.79-47.96,22.33-83.24,34.33-62.95,21.39-136.87,39.96-179.34,48.25v-33.84c39.45-8.07,103.69-24.32,160.14-42.98,83.51-27.62,104.48-45.03,109.54-50.89-5.72-3.9-25.81-12.96-92.89-18.69-384.49-32.87-688.85-10.71-876.45,13.65-71.1,9.24-131.26,19.47-179.48,28.91l-146.4.11c16.9-5.03,127.61-36.66,320.54-61.78,120.57-15.7,248.24-25.51,379.45-29.15,163.93-4.55,333.89.56,505.18,15.2,39.15,3.35,67.75,8.12,87.44,14.59,8.88,2.92,35.88,11.8,37.12,34.79,1.16,21.82-23.18,37.57-41.59,47.51Z"/>
  <polyline class="cls-12" points="408.99 92.54 410.85 92.54 557.25 92.43"/>
  <g>
    <g>
      <path class="cls-14" d="M1436.4,109.51v161.02c0,5.29-2.61,10-6.63,12.9l-2.87,1.66-10.77,6.21c1.83-1.27,3.4-2.93,4.56-4.86,1.44-2.4,2.28-5.2,2.28-8.19V117.25c0-8.77-7.17-15.93-15.93-15.93h-423.04c-2.39.02-4.66.59-6.69,1.58l11.73-6.77,1.41-.81c2.16-1.12,4.61-1.74,7.19-1.74h422.83c8.76,0,15.93,7.17,15.93,15.93Z"/>
      <path class="cls-15" d="M1422.97,117.25v161c0,2.99-.84,5.79-2.28,8.19-1.16,1.93-2.73,3.59-4.56,4.86l-2.31,1.34c-2.05,1-4.35,1.54-6.78,1.54h-422.84c-8.76,0-15.93-7.17-15.93-15.93V117.25c0-5.5,2.81-10.36,7.07-13.23.61-.41,1.25-.78,1.92-1.1l.05-.02c2.03-.99,4.3-1.56,6.69-1.58h423.04c8.76,0,15.93,7.16,15.93,15.93ZM1401.14,207.35c0-9.54-7.73-17.27-17.27-17.27s-17.27,7.73-17.27,17.27,7.73,17.26,17.27,17.26,17.27-7.73,17.27-17.26ZM1351.61,161.77c3.05-11.4.7-23.3-6.47-32.64-7.07-9.22-17.76-14.51-29.31-14.51h-238.62c-11.58,0-22.28,5.31-29.35,14.56-7.17,9.38-9.5,21.31-6.39,32.73l23.21,85.31c4.4,16.19,19.1,27.5,35.74,27.5h192.54c16.71,0,31.42-11.36,35.78-27.63l22.87-85.32ZM1025.27,208.03c0-9.54-7.73-17.27-17.27-17.27s-17.27,7.73-17.27,17.27,7.73,17.27,17.27,17.27,17.27-7.73,17.27-17.27Z"/>
      <path class="cls-2" d="M1383.87,190.08c9.54,0,17.27,7.73,17.27,17.27s-7.73,17.26-17.27,17.26-17.27-7.73-17.27-17.26,7.73-17.27,17.27-17.27Z"/>
      <path class="cls-2" d="M1345.14,129.13c7.17,9.34,9.52,21.24,6.47,32.64l-22.87,85.32c-4.36,16.27-19.07,27.63-35.78,27.63h-192.54c-16.64,0-31.34-11.31-35.74-27.5l-23.21-85.31c-3.11-11.42-.78-23.35,6.39-32.73,7.07-9.25,17.77-14.56,29.35-14.56h238.62c11.55,0,22.24,5.29,29.31,14.51ZM1343.33,159.71c5.01-18.71-8.92-37.12-28.09-37.12h-238.61c-19.22,0-33.16,18.5-28.06,37.23l23.21,85.31c3.48,12.77,14.96,21.62,28.06,21.62h192.54c13.14,0,24.65-8.9,28.08-21.72l22.87-85.32Z"/>
      <path class="cls-1" d="M1315.24,122.59c19.17,0,33.1,18.41,28.09,37.12l-22.87,85.32c-3.43,12.82-14.94,21.72-28.08,21.72h-192.54c-13.1,0-24.58-8.85-28.06-21.62l-23.21-85.31c-5.1-18.73,8.84-37.23,28.06-37.23h238.61Z"/>
      <circle class="cls-2" cx="1008" cy="208.03" r="17.27"/>
      <path class="cls-14" d="M870.27,108.48v161.01c0,4.85-2.19,9.21-5.64,12.14l-8.18,5.72c.76-1.57,1.18-3.32,1.18-5.17V113.31c0-6.6-5.4-12-12-12H12.5c-.25,0-.49.01-.74.03l10.03-7.01h0c2.18-1.14,4.66-1.78,7.28-1.78h825.27c8.77,0,15.93,7.17,15.93,15.93Z"/>
      <path class="cls-15" d="M11.76,101.34c.25-.02.49-.03.74-.03h833.13c6.6,0,12,5.4,12,12v168.87c0,1.85-.42,3.6-1.18,5.17-1.94,4.03-6.07,6.83-10.82,6.83H12.5c-6.6,0-12-5.4-12-12V113.31c0-6.35,5-11.59,11.26-11.97ZM834.2,207.69c0-9.54-7.73-17.27-17.27-17.27s-17.26,7.73-17.26,17.27,7.73,17.26,17.26,17.26,17.27-7.73,17.27-17.26ZM789.57,162.33c3.06-11.4.7-23.3-6.47-32.65-7.07-9.21-17.76-14.5-29.31-14.5H91.32c-11.58,0-22.28,5.31-29.35,14.56-7.17,9.38-9.5,21.31-6.39,32.73l23.21,85.31c4.4,16.19,19.1,27.5,35.74,27.5h616.39c16.71,0,31.42-11.37,35.78-27.63l22.87-85.32ZM45.44,207.69c0-9.54-7.73-17.27-17.27-17.27s-17.26,7.73-17.26,17.27,7.73,17.26,17.26,17.26,17.27-7.73,17.27-17.26Z"/>
      <path class="cls-2" d="M816.93,190.42c9.54,0,17.27,7.73,17.27,17.27s-7.73,17.26-17.27,17.26-17.26-7.73-17.26-17.26,7.73-17.27,17.26-17.27Z"/>
      <path class="cls-2" d="M783.1,129.68c7.17,9.35,9.53,21.25,6.47,32.65l-22.87,85.32c-4.36,16.26-19.07,27.63-35.78,27.63H114.53c-16.64,0-31.34-11.31-35.74-27.5l-23.21-85.31c-3.11-11.42-.78-23.35,6.39-32.73,7.07-9.25,17.77-14.56,29.35-14.56h662.47c11.55,0,22.24,5.29,29.31,14.5ZM781.88,159.71c5.01-18.71-8.92-37.12-28.09-37.12H91.32c-19.22,0-33.15,18.5-28.06,37.23l23.21,85.31c3.48,12.77,14.96,21.62,28.06,21.62h616.39c13.14,0,24.65-8.9,28.09-21.72l22.87-85.32Z"/>
      <path class="cls-13" d="M753.79,122.59c19.17,0,33.1,18.41,28.09,37.12l-22.87,85.32c-3.44,12.82-14.95,21.72-28.09,21.72H114.53c-13.1,0-24.58-8.85-28.06-21.62l-23.21-85.31c-5.09-18.73,8.84-37.23,28.06-37.23h662.47Z"/>
      <path class="cls-2" d="M28.17,190.42c9.54,0,17.27,7.73,17.27,17.27s-7.73,17.26-17.27,17.26-17.26-7.73-17.26-17.26,7.73-17.27,17.26-17.27Z"/>
    </g>
    <g>
      <path class="cls-3" d="M759.01,245.03l22.87-85.32c5.01-18.71-8.92-37.12-28.09-37.12H91.32c-19.22,0-33.15,18.5-28.06,37.23l23.21,85.31c3.48,12.77,14.96,21.62,28.06,21.62h616.39c13.14,0,24.65-8.9,28.09-21.72Z"/>
      <path class="cls-3" d="M730.92,275.28H114.53c-16.64,0-31.34-11.31-35.74-27.5l-23.21-85.31c-3.11-11.42-.78-23.35,6.39-32.73,7.07-9.25,17.77-14.56,29.35-14.56h662.47c11.55,0,22.24,5.29,29.31,14.5,7.17,9.35,9.53,21.25,6.47,32.65l-22.87,85.32c-4.36,16.26-19.07,27.63-35.78,27.63Z"/>
      <path class="cls-3" d="M856.45,287.35c-1.94,4.03-6.07,6.83-10.82,6.83H12.5c-6.6,0-12-5.4-12-12V113.31c0-6.35,5-11.59,11.26-11.97.25-.02.49-.03.74-.03h833.13c6.6,0,12,5.4,12,12v168.87c0,1.85-.42,3.6-1.18,5.17Z"/>
      <path class="cls-3" d="M834.2,207.69c0,9.53-7.73,17.26-17.27,17.26s-17.26-7.73-17.26-17.26,7.73-17.27,17.26-17.27,17.27,7.73,17.27,17.27Z"/>
      <path class="cls-3" d="M1320.46,245.03l22.87-85.32c5.01-18.71-8.92-37.12-28.09-37.12h-238.61c-19.22,0-33.16,18.5-28.06,37.23l23.21,85.31c3.48,12.77,14.96,21.62,28.06,21.62h192.54c13.14,0,24.65-8.9,28.08-21.72Z"/>
      <path class="cls-3" d="M1292.96,274.72h-192.54c-16.64,0-31.34-11.31-35.74-27.5l-23.21-85.31c-3.11-11.42-.78-23.35,6.39-32.73,7.07-9.25,17.77-14.56,29.35-14.56h238.62c11.55,0,22.24,5.29,29.31,14.51,7.17,9.34,9.52,21.24,6.47,32.64l-22.87,85.32c-4.36,16.27-19.07,27.63-35.78,27.63Z"/>
      <path class="cls-3" d="M1416.13,291.3c-.73.52-1.5.97-2.31,1.34"/>
      <path class="cls-3" d="M1401.14,207.35c0,9.53-7.73,17.26-17.27,17.26s-17.27-7.73-17.27-17.26,7.73-17.27,17.27-17.27,17.27,7.73,17.27,17.27Z"/>
      <circle class="cls-3" cx="1008" cy="208.03" r="17.27"/>
      <path class="cls-3" d="M1416.13,291.3l-2.31,1.34c-2.05,1-4.35,1.54-6.78,1.54h-422.84c-8.76,0-15.93-7.17-15.93-15.93V117.25c0-5.5,2.81-10.36,7.07-13.23.61-.41,1.25-.78,1.92-1.1l.05-.02"/>
      <path class="cls-3" d="M1426.9,285.09l-10.77,6.21c1.83-1.27,3.4-2.93,4.56-4.86,1.44-2.4,2.28-5.2,2.28-8.19V117.25c0-8.77-7.17-15.93-15.93-15.93h-423.04c-2.39.02-4.66.59-6.69,1.58l11.73-6.77,1.41-.81c2.16-1.12,4.61-1.74,7.19-1.74h422.83c8.76,0,15.93,7.17,15.93,15.93v161.02c0,5.29-2.61,10-6.63,12.9"/>
      <path class="cls-3" d="M1429.77,283.43c-.89.65-1.86,1.21-2.87,1.66l2.87-1.66Z"/>
      <path class="cls-3" d="M21.79,94.32c2.18-1.13,4.66-1.77,7.28-1.77h825.27c8.77,0,15.93,7.17,15.93,15.93v161.01c0,4.85-2.19,9.21-5.64,12.14"/>
      <polyline class="cls-3" points="850.54 291.48 856.45 287.35 864.63 281.63"/>
      <path class="cls-3" d="M45.44,207.69c0,9.53-7.73,17.26-17.27,17.26s-17.26-7.73-17.26-17.26,7.73-17.27,17.26-17.27,17.27,7.73,17.27,17.27Z"/>
      <polyline class="cls-3" points="5.41 105.77 11.76 101.34 21.79 94.33"/>
    </g>
  </g>
  <circle class="cls-6" cx="141.92" cy="227.39" r="19.02"/>
  <circle class="cls-6" cx="192.99" cy="227.39" r="19.02"/>
  <circle class="cls-6" cx="244.05" cy="227.39" r="19.02"/>
  <circle class="cls-6" cx="295.12" cy="227.39" r="19.02"/>
  <circle class="cls-6" cx="346.07" cy="227.39" r="19.02"/>
  <circle class="cls-6" cx="397.02" cy="227.39" r="19.02"/>
  <circle class="cls-11" cx="448.09" cy="227.39" r="19.02"/>
  <circle class="cls-6" cx="499.16" cy="227.39" r="19.02"/>
  <circle class="cls-6" cx="550.22" cy="227.39" r="19.02"/>
  <circle class="cls-6" cx="601.17" cy="227.39" r="19.02"/>
  <circle class="cls-6" cx="652.12" cy="227.39" r="19.02"/>
  <circle class="cls-6" cx="703.19" cy="227.39" r="19.02"/>
  <circle class="cls-6" cx="116.38" cy="163.45" r="19.02"/>
  <circle class="cls-4" cx="167.45" cy="163.45" r="19.02"/>
  <circle class="cls-10" cx="218.52" cy="163.45" r="19.02"/>
  <circle class="cls-8" cx="269.59" cy="163.45" r="19.02"/>
  <circle class="cls-5" cx="320.54" cy="163.45" r="19.02"/>
  <circle class="cls-7" cx="371.49" cy="163.45" r="19.02"/>
  <circle class="cls-9" cx="422.55" cy="163.45" r="19.02"/>
  <circle class="cls-5" cx="473.62" cy="163.45" r="19.02"/>
  <circle class="cls-6" cx="524.69" cy="163.45" r="19.02"/>
  <circle class="cls-6" cx="575.64" cy="163.45" r="19.02"/>
  <circle class="cls-6" cx="626.59" cy="163.45" r="19.02"/>
  <circle class="cls-6" cx="677.66" cy="163.45" r="19.02"/>
  <circle class="cls-6" cx="728.6" cy="163.45" r="19.02"/>
  <g>
    <path d="M134.26,234.4v-12.11c-.49.07-1.67.11-2.08.1v-2.32c1.19-.11,2.39-.68,3.11-1.45h2.18v15.79h-3.21Z"/>
    <path d="M147.17,234.4v-3.63h-6.93v-2.84l5.92-9.36h3.97v9.58h1.7l-.29,2.61h-1.41v3.63h-2.97ZM147.17,224.72c0-1.79,0-2.66.07-3.73-.84,1.69-2.94,5.14-4.08,7.17h4.01v-3.44Z"/>
  </g>
  <g>
    <path d="M185.16,234.4v-12.11c-.49.07-1.67.11-2.08.1v-2.32c1.19-.11,2.39-.68,3.11-1.45h2.18v15.79h-3.21Z"/>
    <path d="M201.62,221.28h-6.33c-.1,1.01-.3,2.61-.41,3.33.53-.48,1.4-.9,2.88-.9,3.17,0,4.78,2.32,4.78,5.16,0,3.33-1.85,5.75-5.78,5.75-3.01,0-5.15-1.45-5.41-4.46h3.14c.25,1.23.94,1.97,2.34,1.97,1.82,0,2.43-1.21,2.43-3.03,0-1.64-.7-2.88-2.44-2.88-1.42,0-2.12.65-2.5,1.66l-2.67-.43c.35-1.9.95-6.98,1.13-8.85h9.22l-.36,2.66Z"/>
  </g>
  <g>
    <path d="M236.25,234.4v-12.11c-.49.07-1.67.11-2.08.1v-2.32c1.19-.11,2.39-.68,3.11-1.45h2.18v15.79h-3.21Z"/>
    <path d="M250.18,222.25c-.23-.84-.73-1.43-1.97-1.43-2.01,0-2.51,2.33-2.55,4.44.62-.79,1.63-1.42,3.35-1.42,2.39,0,4.62,1.57,4.62,5.15,0,3.13-1.85,5.63-5.44,5.63-4.41,0-5.7-3.14-5.7-7.7s1.37-8.53,5.92-8.53c3.2,0,4.58,1.82,4.89,3.86h-3.12ZM250.41,229.16c0-1.88-.83-2.86-2.31-2.86-1.55,0-2.32.84-2.32,2.6s.57,3.29,2.34,3.29c1.44,0,2.28-1.07,2.28-3.03Z"/>
  </g>
  <g>
    <path d="M288.18,234.4v-12.11c-.49.07-1.67.11-2.08.1v-2.32c1.19-.11,2.39-.68,3.11-1.45h2.18v15.79h-3.21Z"/>
    <path d="M304.41,218.62v2.53c-2.71,3.62-4.85,8.65-5.76,13.26h-3.35c1.01-5.22,3.77-10.39,5.9-13.12h-7.35v-2.66h10.56Z"/>
  </g>
  <g>
    <path d="M338.26,234.4v-12.11c-.49.07-1.67.11-2.08.1v-2.32c1.19-.11,2.39-.68,3.11-1.45h2.18v15.79h-3.21Z"/>
    <path d="M344.28,229.81c0-2.16,1.4-3.3,2.41-3.76-1.13-.6-1.86-1.81-1.86-3.31,0-2.58,1.84-4.34,5.15-4.34,2.99,0,5.02,1.65,5.02,4.23,0,1.73-.9,2.77-1.94,3.27,1.12.42,2.45,1.71,2.45,3.81,0,3.1-2.02,4.94-5.78,4.94s-5.45-2.22-5.45-4.84ZM352.29,229.69c0-1.55-.87-2.47-2.42-2.47-1.72,0-2.39,1.1-2.39,2.48s.83,2.51,2.47,2.51,2.34-1.05,2.34-2.53ZM347.89,222.77c0,1.22.68,2.06,2.03,2.06s2.02-.76,2.02-1.97-.65-2.08-2.03-2.08-2.02.78-2.02,1.99Z"/>
  </g>
  <g>
    <path d="M389.2,234.38v-12.11c-.49.07-1.67.11-2.08.1v-2.32c1.19-.11,2.39-.68,3.11-1.45h2.18v15.79h-3.21Z"/>
    <path d="M398.77,230.69c.22.88.77,1.5,2,1.5,2.08,0,2.32-2.85,2.42-4.63-.63.88-1.93,1.16-2.97,1.16-2.75,0-4.93-1.84-4.93-4.95s2.04-5.41,5.46-5.41c4.43,0,5.62,3.47,5.62,7.37,0,5.11-1.29,8.87-5.8,8.87-3.36,0-4.71-1.97-4.95-3.91h3.15ZM398.53,223.52c0,1.87.99,2.73,2.3,2.73s2.25-.54,2.25-2.29-.52-3.16-2.29-3.16c-1.41,0-2.25,1.04-2.25,2.72Z"/>
  </g>
  <g>
    <path d="M435.95,234.4v-.12c0-2.14.69-4.63,4.77-7.75,1.92-1.48,2.61-2.17,2.61-3.54,0-1.27-.69-2.11-2.01-2.11-1.48,0-2.12.98-2.26,2.58h-3.08c.11-2.66,1.66-5.08,5.45-5.08,3.41,0,5.18,2.04,5.18,4.59,0,2.04-.79,3.28-3.67,5.37-1.54,1.12-2.7,2.29-3.1,3.39h7.19l-.4,2.66h-10.68Z"/>
    <path d="M459.9,226.12c0,4.5-1.19,8.53-5.62,8.53s-5.65-3.94-5.65-8.36,1.67-7.89,5.71-7.89,5.56,3.23,5.56,7.73ZM451.92,226.2c0,3.76.53,5.99,2.36,5.99,1.95,0,2.34-2.33,2.34-6.01,0-3.45-.57-5.34-2.29-5.34s-2.41,1.68-2.41,5.36Z"/>
  </g>
  <g>
    <path d="M489.68,234.4v-.12c0-2.14.69-4.63,4.77-7.75,1.92-1.48,2.61-2.17,2.61-3.54,0-1.27-.69-2.11-2.01-2.11-1.48,0-2.12.98-2.26,2.58h-3.08c.11-2.66,1.66-5.08,5.45-5.08,3.41,0,5.18,2.04,5.18,4.59,0,2.04-.79,3.28-3.67,5.37-1.54,1.12-2.7,2.29-3.1,3.39h7.19l-.4,2.66h-10.68Z"/>
    <path d="M504.39,234.4v-12.11c-.49.07-1.67.11-2.08.1v-2.32c1.19-.11,2.39-.68,3.11-1.45h2.18v15.79h-3.21Z"/>
  </g>
  <g>
    <path d="M538.45,234.41v-.12c0-2.14.69-4.63,4.77-7.75,1.92-1.48,2.61-2.18,2.61-3.54,0-1.27-.69-2.11-2.01-2.11-1.48,0-2.12.98-2.26,2.58h-3.08c.11-2.66,1.66-5.08,5.45-5.08,3.41,0,5.18,2.04,5.18,4.59,0,2.04-.79,3.28-3.67,5.37-1.54,1.12-2.7,2.29-3.1,3.39h7.19l-.4,2.66h-10.68Z"/>
    <path d="M551.23,234.41v-.12c0-2.14.69-4.63,4.77-7.75,1.92-1.48,2.61-2.18,2.61-3.54,0-1.27-.69-2.11-2.01-2.11-1.48,0-2.12.98-2.26,2.58h-3.08c.11-2.66,1.66-5.08,5.45-5.08,3.41,0,5.18,2.04,5.18,4.59,0,2.04-.79,3.28-3.67,5.37-1.54,1.12-2.7,2.29-3.1,3.39h7.19l-.4,2.66h-10.68Z"/>
  </g>
  <g>
    <path d="M589.08,234.4v-.12c0-2.14.69-4.63,4.77-7.75,1.92-1.48,2.61-2.17,2.61-3.54,0-1.27-.69-2.11-2.01-2.11-1.48,0-2.12.98-2.26,2.58h-3.08c.11-2.66,1.66-5.08,5.45-5.08,3.41,0,5.18,2.04,5.18,4.59,0,2.04-.79,3.28-3.67,5.37-1.54,1.12-2.7,2.29-3.1,3.39h7.19l-.4,2.66h-10.68Z"/>
    <path d="M602.15,222.94c.23-2.22,1.58-4.55,5.27-4.55s5.13,2.05,5.13,4.2c0,1.8-1.15,2.77-2.08,3.15v.05c1.27.44,2.73,1.49,2.73,3.92s-1.55,4.93-5.79,4.93c-3.76,0-5.38-2.14-5.55-4.58h3.15c.21,1.15.87,2.09,2.54,2.09s2.37-.94,2.37-2.41c0-1.71-.95-2.44-2.76-2.44h-1.21v-2.55h.98c1.64,0,2.41-.46,2.41-1.94,0-1.27-.67-1.98-2.02-1.98s-2.03.74-2.2,2.1h-2.96Z"/>
  </g>
  <g>
    <path d="M640.33,234.38v-.12c0-2.14.69-4.63,4.77-7.75,1.92-1.48,2.61-2.17,2.61-3.54,0-1.27-.69-2.11-2.01-2.11-1.48,0-2.12.98-2.26,2.58h-3.08c.11-2.66,1.66-5.08,5.45-5.08,3.41,0,5.18,2.04,5.18,4.59,0,2.04-.79,3.28-3.67,5.37-1.54,1.12-2.7,2.29-3.1,3.39h7.19l-.4,2.66h-10.68Z"/>
    <path d="M659.67,234.38v-3.63h-6.93v-2.84l5.92-9.36h3.97v9.58h1.7l-.29,2.61h-1.41v3.63h-2.97ZM659.67,224.7c0-1.79,0-2.66.07-3.73-.84,1.69-2.94,5.14-4.08,7.17h4.01v-3.44Z"/>
  </g>
  <g>
    <path d="M691.33,234.4v-.12c0-2.14.69-4.63,4.77-7.75,1.92-1.48,2.61-2.17,2.61-3.54,0-1.27-.69-2.11-2.01-2.11-1.48,0-2.12.98-2.26,2.58h-3.08c.11-2.66,1.66-5.08,5.45-5.08,3.41,0,5.18,2.04,5.18,4.59,0,2.04-.79,3.28-3.67,5.37-1.54,1.12-2.7,2.29-3.1,3.39h7.19l-.4,2.66h-10.68Z"/>
    <path d="M714.01,221.28h-6.33c-.1,1.01-.3,2.61-.41,3.33.53-.48,1.4-.9,2.88-.9,3.17,0,4.78,2.32,4.78,5.16,0,3.33-1.85,5.75-5.78,5.75-3.01,0-5.15-1.45-5.41-4.46h3.14c.25,1.23.94,1.97,2.34,1.97,1.82,0,2.43-1.21,2.43-3.03,0-1.64-.7-2.88-2.44-2.88-1.42,0-2.12.65-2.5,1.66l-2.67-.43c.35-1.9.95-6.98,1.13-8.85h9.22l-.36,2.66Z"/>
  </g>
  <path d="M115.18,170.44v-12.11c-.49.07-1.67.11-2.08.1v-2.32c1.19-.11,2.39-.68,3.11-1.45h2.18v15.79h-3.21Z"/>
  <path d="M162.07,170.44v-.12c0-2.14.69-4.63,4.77-7.75,1.92-1.48,2.61-2.17,2.61-3.54,0-1.27-.69-2.11-2.01-2.11-1.48,0-2.12.98-2.26,2.58h-3.08c.11-2.66,1.66-5.08,5.45-5.08,3.41,0,5.18,2.04,5.18,4.59,0,2.04-.79,3.28-3.67,5.37-1.54,1.12-2.7,2.29-3.1,3.39h7.19l-.4,2.66h-10.68Z"/>
  <path d="M213.06,158.98c.23-2.22,1.58-4.55,5.27-4.55s5.13,2.05,5.13,4.2c0,1.8-1.15,2.77-2.08,3.15v.05c1.27.44,2.73,1.49,2.73,3.92s-1.55,4.93-5.79,4.93c-3.76,0-5.38-2.14-5.55-4.58h3.15c.21,1.15.87,2.09,2.54,2.09s2.37-.94,2.37-2.41c0-1.71-.95-2.44-2.76-2.44h-1.21v-2.55h.98c1.64,0,2.41-.46,2.41-1.94,0-1.27-.67-1.98-2.02-1.98s-2.03.74-2.2,2.1h-2.96Z"/>
  <path d="M269.61,170.47v-3.63h-6.93v-2.84l5.92-9.36h3.97v9.58h1.7l-.29,2.61h-1.41v3.63h-2.97ZM269.61,160.79c0-1.79,0-2.66.07-3.73-.84,1.69-2.94,5.14-4.08,7.17h4.01v-3.44Z"/>
  <path d="M324.74,157.26h-6.33c-.1,1.01-.3,2.61-.41,3.33.53-.48,1.4-.9,2.88-.9,3.17,0,4.78,2.32,4.78,5.16,0,3.33-1.85,5.75-5.78,5.75-3.01,0-5.15-1.45-5.41-4.46h3.14c.25,1.23.94,1.97,2.34,1.97,1.82,0,2.43-1.21,2.43-3.03,0-1.64-.7-2.88-2.44-2.88-1.42,0-2.12.65-2.5,1.66l-2.67-.43c.35-1.9.95-6.98,1.13-8.85h9.22l-.36,2.66Z"/>
  <path d="M373.74,158.31c-.23-.84-.73-1.43-1.97-1.43-2.01,0-2.51,2.33-2.55,4.44.62-.79,1.63-1.42,3.35-1.42,2.39,0,4.62,1.57,4.62,5.15,0,3.13-1.85,5.63-5.44,5.63-4.41,0-5.7-3.14-5.7-7.7s1.37-8.53,5.92-8.53c3.2,0,4.58,1.82,4.89,3.86h-3.12ZM373.96,165.22c0-1.88-.83-2.86-2.31-2.86-1.55,0-2.32.84-2.32,2.6s.57,3.29,2.34,3.29c1.44,0,2.28-1.07,2.28-3.03Z"/>
  <path d="M427.83,154.68v2.53c-2.71,3.62-4.85,8.65-5.76,13.26h-3.35c1.01-5.22,3.77-10.39,5.9-13.12h-7.35v-2.66h10.56Z"/>
  <path d="M468,165.78c0-2.16,1.4-3.3,2.41-3.76-1.13-.6-1.86-1.81-1.86-3.31,0-2.59,1.84-4.34,5.15-4.34,2.99,0,5.02,1.65,5.02,4.23,0,1.73-.9,2.77-1.94,3.27,1.12.42,2.45,1.71,2.45,3.81,0,3.1-2.02,4.94-5.78,4.94s-5.45-2.22-5.45-4.84ZM476.01,165.66c0-1.55-.87-2.47-2.42-2.47-1.72,0-2.39,1.1-2.39,2.48s.83,2.51,2.47,2.51,2.34-1.05,2.34-2.53ZM471.61,158.75c0,1.22.68,2.06,2.03,2.06s2.02-.76,2.02-1.97-.65-2.08-2.03-2.08-2.02.78-2.02,1.99Z"/>
  <path d="M522.54,166.68c.22.88.77,1.5,2,1.5,2.08,0,2.32-2.85,2.42-4.63-.63.88-1.93,1.16-2.97,1.16-2.75,0-4.93-1.84-4.93-4.95s2.04-5.41,5.46-5.41c4.43,0,5.62,3.47,5.62,7.37,0,5.11-1.29,8.87-5.8,8.87-3.36,0-4.71-1.97-4.95-3.91h3.15ZM522.3,159.51c0,1.87.99,2.73,2.3,2.73s2.25-.54,2.25-2.29-.52-3.16-2.29-3.16c-1.41,0-2.25,1.04-2.25,2.72Z"/>
  <g>
    <path d="M567.74,170.47v-12.11c-.49.07-1.67.11-2.08.1v-2.32c1.19-.11,2.39-.68,3.11-1.45h2.18v15.79h-3.21Z"/>
    <path d="M585.05,162.18c0,4.5-1.19,8.53-5.62,8.53s-5.65-3.94-5.65-8.36,1.67-7.89,5.71-7.89,5.56,3.23,5.56,7.73ZM577.07,162.26c0,3.76.53,5.99,2.36,5.99,1.95,0,2.34-2.33,2.34-6.01,0-3.45-.57-5.34-2.29-5.34s-2.41,1.68-2.41,5.36Z"/>
  </g>
  <g>
    <path d="M621.61,170.47v-12.11c-.49.07-1.67.11-2.08.1v-2.32c1.19-.11,2.39-.68,3.11-1.45h2.18v15.79h-3.21Z"/>
    <path d="M629.17,170.47v-12.11c-.49.07-1.67.11-2.08.1v-2.32c1.19-.11,2.39-.68,3.11-1.45h2.18v15.79h-3.21Z"/>
  </g>
  <g>
    <path d="M670.12,170.38v-12.11c-.49.07-1.67.11-2.08.1v-2.32c1.19-.11,2.39-.68,3.11-1.45h2.18v15.79h-3.21Z"/>
    <path d="M676.27,170.38v-.12c0-2.14.69-4.63,4.77-7.75,1.92-1.48,2.61-2.17,2.61-3.54,0-1.27-.69-2.11-2.01-2.11-1.48,0-2.12.98-2.26,2.58h-3.08c.11-2.66,1.66-5.08,5.45-5.08,3.41,0,5.18,2.04,5.18,4.59,0,2.04-.79,3.28-3.67,5.37-1.54,1.12-2.7,2.29-3.1,3.39h7.19l-.4,2.66h-10.68Z"/>
  </g>
  <g>
    <path d="M720.94,170.47v-12.11c-.49.07-1.67.11-2.08.1v-2.32c1.19-.11,2.39-.68,3.11-1.45h2.18v15.79h-3.21Z"/>
    <path d="M727,159c.23-2.22,1.58-4.55,5.27-4.55s5.13,2.05,5.13,4.2c0,1.8-1.15,2.77-2.08,3.15v.05c1.27.44,2.73,1.49,2.73,3.92s-1.55,4.93-5.79,4.93c-3.76,0-5.38-2.14-5.55-4.58h3.15c.21,1.15.87,2.09,2.54,2.09s2.37-.94,2.37-2.41c0-1.71-.95-2.44-2.76-2.44h-1.21v-2.55h.98c1.64,0,2.41-.46,2.41-1.94,0-1.27-.67-1.98-2.02-1.98s-2.03.74-2.2,2.1h-2.96Z"/>
  </g>
  <g>
    <path d="M340.73,285.99c0-1.86.03-4.08.08-5.3h-.09c-.49,2.26-1.6,6.29-2.55,9.38h-1.92c-.7-2.6-1.84-7.19-2.29-9.41h-.09c.09,1.27.14,3.64.14,5.52v3.89h-2.04v-10.92h3.33c.78,2.55,1.76,6.35,2.06,8.01h.02c.24-1.42,1.48-5.43,2.3-8.01h3.2v10.92h-2.14v-4.07Z"/>
    <path d="M347.11,287.47l-.77,2.59h-2.19c.14-.42,3.18-10.43,3.34-10.92h2.88l3.51,10.92h-2.33l-.83-2.59h-3.6ZM350.27,285.63c-.68-2.21-1.15-3.77-1.4-4.79h-.02c-.26,1.21-.76,2.92-1.33,4.79h2.75Z"/>
    <path d="M355.22,279.15h2.23v9.09h4.87l-.24,1.83h-6.86v-10.92Z"/>
    <path d="M370.66,285.3h-4.75v2.94h5.24l-.27,1.83h-7.14v-10.92h7.11v1.84h-4.94v2.47h4.75v1.84Z"/>
    <path d="M375.93,290.07v-.08c0-1.43.46-3.1,3.19-5.19,1.28-.99,1.75-1.46,1.75-2.37,0-.85-.46-1.41-1.35-1.41-.99,0-1.42.66-1.51,1.73h-2.07c.07-1.78,1.11-3.4,3.65-3.4,2.29,0,3.47,1.37,3.47,3.08,0,1.37-.53,2.2-2.46,3.59-1.03.75-1.81,1.54-2.08,2.27h4.81l-.27,1.78h-7.15Z"/>
    <path d="M391.12,281.28h-4.24c-.07.67-.2,1.75-.27,2.23.36-.32.94-.6,1.93-.6,2.12,0,3.2,1.56,3.2,3.46,0,2.23-1.24,3.85-3.87,3.85-2.02,0-3.45-.97-3.62-2.99h2.1c.17.83.63,1.32,1.56,1.32,1.22,0,1.62-.81,1.62-2.03,0-1.1-.47-1.93-1.64-1.93-.95,0-1.42.44-1.67,1.11l-1.79-.29c.24-1.27.64-4.67.76-5.92h6.17l-.24,1.78Z"/>
    <path d="M393.49,279.15h4.02c2.05,0,3.85,1.05,3.85,3.26s-1.67,3.44-4.04,3.44h-1.6v4.21h-2.23v-10.92ZM395.71,284.1h1.46c1.19,0,1.92-.44,1.92-1.64,0-1.09-.76-1.54-1.85-1.54h-1.53v3.18Z"/>
    <path d="M405.22,279.15v10.92h-2.23v-10.92h2.23Z"/>
    <path d="M407.69,290.07v-10.92h2.84c3.24,6.65,3.77,7.73,3.93,8.25h.03c-.11-1.3-.13-3.08-.13-4.86v-3.38h2.03v10.92h-2.73c-3.48-7.32-3.87-8.18-4.03-8.59h-.02c.08,1.38.09,3.27.09,5.21v3.38h-2.03Z"/>
    <path d="M431.12,286.63c-.29,1.84-1.53,3.59-4.33,3.59-3.44,0-4.68-2.5-4.68-5.62s1.58-5.6,4.77-5.6c2.95,0,4.08,1.88,4.18,3.57h-2.17c-.22-.9-.58-1.79-2.08-1.79-1.82,0-2.41,1.84-2.41,3.81,0,2.08.57,3.86,2.44,3.86,1.46,0,1.9-1.01,2.1-1.82h2.19Z"/>
    <path d="M442.27,284.56c0,3.14-1.52,5.67-4.96,5.67s-4.81-2.59-4.81-5.69c0-2.69,1.47-5.53,4.96-5.53,3.3,0,4.8,2.61,4.8,5.55ZM434.81,284.54c0,2.18.87,3.91,2.6,3.91,1.9,0,2.58-1.61,2.58-3.9,0-2.01-.68-3.78-2.62-3.78-1.8,0-2.56,1.67-2.56,3.76Z"/>
    <path d="M444.22,290.07v-10.92h2.84c3.24,6.65,3.77,7.73,3.93,8.25h.03c-.11-1.3-.13-3.08-.13-4.86v-3.38h2.03v10.92h-2.73c-3.48-7.32-3.87-8.18-4.03-8.59h-.02c.08,1.38.09,3.27.09,5.21v3.38h-2.03Z"/>
    <path d="M455.38,290.07v-10.92h2.84c3.24,6.65,3.77,7.73,3.93,8.25h.03c-.11-1.3-.13-3.08-.13-4.86v-3.38h2.03v10.92h-2.73c-3.48-7.32-3.87-8.18-4.03-8.59h-.02c.08,1.38.09,3.27.09,5.21v3.38h-2.03Z"/>
    <path d="M473.47,285.3h-4.75v2.94h5.24l-.27,1.83h-7.14v-10.92h7.11v1.84h-4.94v2.47h4.75v1.84Z"/>
    <path d="M484.16,286.63c-.29,1.84-1.53,3.59-4.33,3.59-3.44,0-4.68-2.5-4.68-5.62s1.58-5.6,4.77-5.6c2.95,0,4.08,1.88,4.18,3.57h-2.17c-.22-.9-.58-1.79-2.08-1.79-1.82,0-2.41,1.84-2.41,3.81,0,2.08.57,3.86,2.44,3.86,1.46,0,1.9-1.01,2.1-1.82h2.19Z"/>
    <path d="M488.03,280.99h-2.96v-1.84h8.16v1.84h-2.96v9.07h-2.24v-9.07Z"/>
    <path d="M503.63,284.56c0,3.14-1.52,5.67-4.96,5.67s-4.81-2.59-4.81-5.69c0-2.69,1.47-5.53,4.96-5.53,3.3,0,4.8,2.61,4.8,5.55ZM496.17,284.54c0,2.18.87,3.91,2.6,3.91,1.9,0,2.58-1.61,2.58-3.9,0-2.01-.68-3.78-2.62-3.78-1.8,0-2.56,1.67-2.56,3.76Z"/>
    <path d="M507.76,285.56v4.51h-2.19v-10.92h4.45c2.06,0,3.53,1.02,3.53,2.95,0,1.49-.78,2.2-1.7,2.55,1.08.42,1.47,1.27,1.47,2.63v.28c0,.97.06,1.88.15,2.5h-2.15c-.16-.46-.2-1.19-.2-2.53v-.29c0-1.25-.45-1.69-1.88-1.69h-1.48ZM507.76,283.79h1.66c1.06,0,1.93-.28,1.93-1.49,0-1.01-.73-1.38-1.62-1.38h-1.97v2.87Z"/>
  </g>
  <circle class="cls-9" cx="1093.48" cy="163.64" r="19.02"/>
  <circle class="cls-5" cx="1144.55" cy="163.64" r="19.02"/>
  <circle class="cls-10" cx="1195.62" cy="163.64" r="19.02"/>
  <circle class="cls-4" cx="1246.69" cy="163.64" r="19.02"/>
  <circle class="cls-11" cx="1297.64" cy="163.64" r="19.02"/>
  <circle class="cls-6" cx="1119.4" cy="226.71" r="19.02"/>
  <circle class="cls-11" cx="1170.47" cy="226.71" r="19.02"/>
  <circle class="cls-7" cx="1221.54" cy="226.71" r="19.02"/>
  <circle class="cls-8" cx="1272.6" cy="226.71" r="19.02"/>
  <path d="M1098.42,157.51h-6.33c-.1,1.01-.3,2.61-.41,3.33.54-.48,1.4-.9,2.88-.9,3.17,0,4.78,2.32,4.78,5.17,0,3.33-1.85,5.75-5.78,5.75-3.01,0-5.15-1.45-5.41-4.46h3.14c.25,1.23.94,1.97,2.34,1.97,1.81,0,2.42-1.21,2.42-3.03,0-1.64-.7-2.88-2.44-2.88-1.42,0-2.12.65-2.5,1.66l-2.67-.43c.35-1.9.95-6.98,1.13-8.85h9.22l-.36,2.66Z"/>
  <path d="M1144.78,170.65v-3.63h-6.93v-2.84l5.92-9.36h3.97v9.58h1.7l-.29,2.61h-1.41v3.63h-2.97ZM1144.78,160.97c0-1.79,0-2.66.07-3.73-.84,1.69-2.94,5.14-4.08,7.17h4.01v-3.44Z"/>
  <path d="M1189.98,159.16c.22-2.22,1.58-4.55,5.27-4.55s5.13,2.05,5.13,4.2c0,1.8-1.15,2.77-2.08,3.15v.05c1.27.44,2.73,1.49,2.73,3.92s-1.55,4.93-5.79,4.93c-3.76,0-5.38-2.14-5.55-4.58h3.15c.21,1.15.87,2.09,2.54,2.09s2.37-.94,2.37-2.41c0-1.71-.95-2.44-2.76-2.44h-1.21v-2.55h.98c1.64,0,2.41-.46,2.41-1.94,0-1.27-.67-1.98-2.02-1.98s-2.03.74-2.2,2.1h-2.96Z"/>
  <path d="M1240.9,170.65v-.12c0-2.14.69-4.63,4.77-7.75,1.92-1.48,2.61-2.17,2.61-3.54,0-1.27-.69-2.11-2.01-2.11-1.48,0-2.12.98-2.26,2.58h-3.08c.11-2.66,1.66-5.08,5.45-5.08,3.41,0,5.18,2.04,5.18,4.59,0,2.04-.79,3.28-3.67,5.37-1.54,1.12-2.7,2.29-3.1,3.39h7.19l-.4,2.66h-10.68Z"/>
  <path d="M1296.44,170.65v-12.11c-.49.07-1.67.11-2.08.1v-2.32c1.19-.11,2.39-.68,3.12-1.45h2.18v15.79h-3.21Z"/>
  <path d="M1117.6,230.29c.22.88.77,1.5,2,1.5,2.08,0,2.32-2.85,2.42-4.63-.63.88-1.93,1.16-2.97,1.16-2.75,0-4.93-1.84-4.93-4.95s2.04-5.41,5.46-5.41c4.43,0,5.62,3.47,5.62,7.37,0,5.11-1.29,8.87-5.8,8.87-3.36,0-4.71-1.97-4.95-3.91h3.15ZM1117.36,223.12c0,1.87.99,2.73,2.3,2.73s2.25-.54,2.25-2.29-.52-3.16-2.29-3.16c-1.41,0-2.25,1.04-2.25,2.72Z"/>
  <path d="M1164.81,229.39c0-2.16,1.4-3.3,2.41-3.76-1.12-.6-1.86-1.81-1.86-3.31,0-2.59,1.84-4.34,5.15-4.34,3,0,5.02,1.65,5.02,4.23,0,1.73-.9,2.77-1.94,3.27,1.12.42,2.45,1.71,2.45,3.81,0,3.1-2.03,4.94-5.78,4.94s-5.45-2.22-5.45-4.84ZM1172.82,229.27c0-1.55-.87-2.47-2.42-2.47-1.72,0-2.39,1.1-2.39,2.48s.83,2.51,2.47,2.51,2.34-1.05,2.34-2.53ZM1168.41,222.36c0,1.22.68,2.06,2.03,2.06s2.02-.76,2.02-1.97-.65-2.08-2.03-2.08-2.02.78-2.02,1.99Z"/>
  <path d="M1226.81,219.6v2.53c-2.71,3.62-4.85,8.65-5.76,13.26h-3.35c1.01-5.22,3.77-10.39,5.9-13.12h-7.35v-2.66h10.56Z"/>
  <path d="M1274.49,221.83c-.23-.84-.73-1.43-1.97-1.43-2.01,0-2.51,2.33-2.55,4.43.62-.79,1.63-1.42,3.35-1.42,2.39,0,4.62,1.57,4.62,5.15,0,3.13-1.85,5.63-5.44,5.63-4.41,0-5.71-3.14-5.71-7.7s1.37-8.53,5.92-8.53c3.2,0,4.58,1.82,4.89,3.86h-3.12ZM1274.72,228.74c0-1.88-.83-2.86-2.31-2.86s-2.32.84-2.32,2.6.57,3.29,2.34,3.29c1.44,0,2.28-1.07,2.28-3.03Z"/>
  <g>
    <path d="M1103.66,279.15h7v1.84h-4.81v2.76h4.52v1.81h-4.52v4.5h-2.18v-10.92Z"/>
    <path d="M1119.13,285.3h-4.75v2.94h5.24l-.27,1.83h-7.14v-10.92h7.11v1.84h-4.94v2.47h4.75v1.84Z"/>
    <path d="M1129.98,285.99c0-1.86.03-4.08.08-5.3h-.09c-.49,2.26-1.6,6.29-2.55,9.38h-1.92c-.7-2.6-1.84-7.19-2.29-9.41h-.09c.09,1.27.14,3.64.14,5.52v3.89h-2.04v-10.92h3.33c.78,2.55,1.76,6.35,2.06,8.01h.02c.24-1.42,1.48-5.43,2.3-8.01h3.2v10.92h-2.14v-4.07Z"/>
    <path d="M1136.35,287.47l-.77,2.59h-2.19c.14-.42,3.18-10.43,3.34-10.92h2.88l3.51,10.92h-2.33l-.83-2.59h-3.6ZM1139.52,285.63c-.68-2.21-1.15-3.77-1.4-4.79h-.02c-.26,1.21-.76,2.92-1.33,4.79h2.75Z"/>
    <path d="M1144.47,279.15h2.22v9.09h4.88l-.24,1.83h-6.86v-10.92Z"/>
    <path d="M1159.91,285.3h-4.75v2.94h5.24l-.27,1.83h-7.14v-10.92h7.11v1.84h-4.94v2.47h4.75v1.84Z"/>
    <path d="M1167.6,287.59c.15.59.52,1.01,1.34,1.01,1.39,0,1.55-1.91,1.62-3.1-.42.59-1.29.78-1.99.78-1.84,0-3.3-1.23-3.3-3.32s1.37-3.62,3.65-3.62c2.97,0,3.77,2.32,3.77,4.93,0,3.42-.86,5.94-3.88,5.94-2.25,0-3.15-1.32-3.31-2.62h2.11ZM1167.44,282.79c0,1.25.66,1.83,1.54,1.83s1.5-.36,1.5-1.54-.35-2.12-1.53-2.12c-.95,0-1.51.7-1.51,1.83Z"/>
    <path d="M1174.58,279.15h4.02c2.05,0,3.85,1.05,3.85,3.26s-1.67,3.44-4.04,3.44h-1.6v4.21h-2.23v-10.92ZM1176.8,284.1h1.46c1.19,0,1.92-.44,1.92-1.64,0-1.09-.76-1.54-1.85-1.54h-1.53v3.18Z"/>
    <path d="M1186.31,279.15v10.92h-2.22v-10.92h2.22Z"/>
    <path d="M1188.79,290.07v-10.92h2.84c3.24,6.65,3.76,7.73,3.93,8.25h.03c-.11-1.3-.13-3.08-.13-4.86v-3.38h2.03v10.92h-2.72c-3.48-7.32-3.87-8.18-4.03-8.59h-.02c.08,1.38.09,3.27.09,5.21v3.38h-2.03Z"/>
    <path d="M1212.21,286.63c-.29,1.84-1.53,3.59-4.33,3.59-3.44,0-4.68-2.5-4.68-5.62s1.58-5.6,4.77-5.6c2.95,0,4.08,1.88,4.18,3.57h-2.17c-.22-.9-.58-1.79-2.08-1.79-1.82,0-2.41,1.84-2.41,3.81,0,2.08.57,3.86,2.44,3.86,1.46,0,1.9-1.01,2.1-1.82h2.19Z"/>
    <path d="M1223.37,284.56c0,3.14-1.52,5.67-4.96,5.67s-4.8-2.59-4.8-5.69c0-2.69,1.47-5.53,4.96-5.53,3.3,0,4.8,2.61,4.8,5.55ZM1215.9,284.54c0,2.18.87,3.91,2.6,3.91,1.9,0,2.58-1.61,2.58-3.9,0-2.01-.68-3.78-2.62-3.78-1.8,0-2.56,1.67-2.56,3.76Z"/>
    <path d="M1225.31,290.07v-10.92h2.84c3.24,6.65,3.76,7.73,3.93,8.25h.03c-.11-1.3-.12-3.08-.12-4.86v-3.38h2.03v10.92h-2.72c-3.48-7.32-3.87-8.18-4.03-8.59h-.02c.08,1.38.09,3.27.09,5.21v3.38h-2.03Z"/>
    <path d="M1236.48,290.07v-10.92h2.84c3.24,6.65,3.76,7.73,3.93,8.25h.03c-.11-1.3-.12-3.08-.12-4.86v-3.38h2.03v10.92h-2.72c-3.48-7.32-3.87-8.18-4.03-8.59h-.02c.08,1.38.09,3.27.09,5.21v3.38h-2.03Z"/>
    <path d="M1254.56,285.3h-4.75v2.94h5.24l-.27,1.83h-7.14v-10.92h7.11v1.84h-4.94v2.47h4.75v1.84Z"/>
    <path d="M1265.25,286.63c-.29,1.84-1.53,3.59-4.33,3.59-3.44,0-4.68-2.5-4.68-5.62s1.58-5.6,4.77-5.6c2.95,0,4.08,1.88,4.18,3.57h-2.17c-.22-.9-.58-1.79-2.08-1.79-1.82,0-2.41,1.84-2.41,3.81,0,2.08.57,3.86,2.44,3.86,1.46,0,1.9-1.01,2.1-1.82h2.19Z"/>
    <path d="M1269.12,280.99h-2.96v-1.84h8.16v1.84h-2.96v9.07h-2.24v-9.07Z"/>
    <path d="M1284.72,284.56c0,3.14-1.52,5.67-4.96,5.67s-4.8-2.59-4.8-5.69c0-2.69,1.47-5.53,4.96-5.53,3.3,0,4.8,2.61,4.8,5.55ZM1277.26,284.54c0,2.18.87,3.91,2.6,3.91,1.9,0,2.58-1.61,2.58-3.9,0-2.01-.68-3.78-2.62-3.78-1.8,0-2.56,1.67-2.56,3.76Z"/>
    <path d="M1288.85,285.56v4.51h-2.18v-10.92h4.45c2.06,0,3.53,1.02,3.53,2.95,0,1.49-.79,2.2-1.7,2.55,1.08.42,1.47,1.27,1.47,2.63v.28c0,.97.06,1.88.15,2.5h-2.14c-.16-.46-.2-1.19-.2-2.53v-.29c0-1.25-.46-1.69-1.88-1.69h-1.49ZM1288.85,283.79h1.66c1.06,0,1.93-.28,1.93-1.49,0-1.01-.73-1.38-1.62-1.38h-1.97v2.87Z"/>
  </g>
  <path class="cls-13" d="M1295.16,138.5l-1,3.36h-2.83c.19-.55,4.11-13.51,4.32-14.14h3.73l4.54,14.14h-3.02l-1.07-3.36h-4.67ZM1299.26,136.12c-.88-2.87-1.49-4.89-1.81-6.21h-.02c-.34,1.57-.98,3.78-1.72,6.21h3.56Z"/>
  <path class="cls-13" d="M1167.99,260.79l-1,3.36h-2.83c.19-.55,4.11-13.51,4.32-14.14h3.73l4.54,14.14h-3.02l-1.07-3.36h-4.67ZM1172.09,258.41c-.88-2.87-1.49-4.89-1.81-6.21h-.02c-.34,1.57-.98,3.78-1.72,6.21h3.56Z"/>
  <path class="cls-13" d="M1242.81,127.72h4.32c2.44,0,3.52,1.64,3.52,3.59,0,1.78-.77,2.53-1.36,2.85.82.43,1.74,1.46,1.74,3.41,0,2.72-1.61,4.28-3.98,4.28h-4.24v-14.14ZM1246.75,133.28c1.17,0,1.71-.47,1.71-1.67s-.63-1.69-1.59-1.69h-1.82v3.36h1.71ZM1245.04,139.68h1.85c1.03,0,1.83-.63,1.83-2.09,0-1.38-.63-2.12-2-2.12h-1.68v4.22Z"/>
  <path d="M445.61,260.82l-1,3.36h-2.83c.19-.55,4.11-13.51,4.32-14.14h3.73l4.54,14.14h-3.02l-1.07-3.36h-4.67ZM449.71,258.44c-.88-2.87-1.49-4.89-1.81-6.21h-.02c-.34,1.57-.98,3.78-1.72,6.21h3.56Z"/>
  <path d="M163.58,125.89h4.32c2.44,0,3.52,1.64,3.52,3.59,0,1.78-.77,2.53-1.35,2.85.82.43,1.74,1.46,1.74,3.41,0,2.72-1.61,4.28-3.98,4.28h-4.24v-14.14ZM167.51,131.45c1.17,0,1.71-.47,1.71-1.67s-.63-1.69-1.59-1.69h-1.82v3.36h1.71ZM165.8,137.85h1.85c1.03,0,1.83-.63,1.83-2.09,0-1.38-.63-2.12-2-2.12h-1.68v4.22Z"/>
  <path class="cls-13" d="M1200.57,135.58c-.3,2.39-1.56,4.66-4.42,4.66-3.5,0-4.77-3.24-4.77-7.28s1.61-7.25,4.86-7.25c3,0,4.15,2.44,4.26,4.63h-2.22c-.22-1.17-.59-2.32-2.12-2.32-1.85,0-2.46,2.39-2.46,4.93,0,2.69.58,5,2.48,5,1.49,0,1.93-1.31,2.14-2.36h2.23Z"/>
  <path d="M223.16,135.58c-.3,2.39-1.56,4.66-4.42,4.66-3.5,0-4.77-3.24-4.77-7.28s1.61-7.25,4.86-7.25c3,0,4.15,2.44,4.26,4.63h-2.22c-.22-1.17-.59-2.32-2.12-2.32-1.85,0-2.46,2.39-2.46,4.93,0,2.69.58,5,2.48,5,1.49,0,1.93-1.31,2.14-2.36h2.23Z"/>
  <path class="cls-13" d="M1140.25,126.81h3.87c3.38,0,5.24,2.63,5.24,6.77,0,4.59-1.95,7.37-5.33,7.37h-3.78v-14.14ZM1142.53,138.67h1.47c1.97,0,3.01-1.87,3.01-5.05,0-2.63-.93-4.51-2.99-4.51h-1.49v9.56Z"/>
  <path d="M316.23,125.89h3.87c3.38,0,5.24,2.63,5.24,6.77,0,4.59-1.95,7.37-5.33,7.37h-3.78v-14.14ZM318.52,137.76h1.47c1.97,0,3.01-1.87,3.01-5.05,0-2.63-.93-4.51-2.99-4.51h-1.49v9.56Z"/>
  <path d="M469.32,125.89h3.87c3.38,0,5.24,2.63,5.24,6.77,0,4.59-1.95,7.37-5.33,7.37h-3.78v-14.14ZM471.6,137.76h1.47c1.97,0,3.01-1.87,3.01-5.05,0-2.63-.93-4.51-2.99-4.51h-1.49v9.56Z"/>
  <g>
    <path class="cls-13" d="M1086.02,136.77c.16,1.28.82,2.12,2,2.12,1.27,0,1.71-.7,1.71-1.7,0-1.28-.61-1.81-2.22-2.39-2.58-.91-3.46-2.08-3.46-4.13,0-2.62,1.65-4.05,3.77-4.05,2.67,0,3.8,1.76,3.93,4.04h-2.23c-.14-1.04-.54-1.83-1.72-1.83-1,0-1.49.59-1.49,1.57,0,1.05.56,1.35,2.13,1.94,2.84,1.05,3.59,2.5,3.59,4.52,0,2.3-1.21,4.27-4.12,4.27-2.43,0-4-1.55-4.14-4.35h2.24Z"/>
    <path class="cls-13" d="M1102.69,140.94h-1.67c-.08-.46-.14-1.11-.17-1.64-.57,1.41-1.69,1.85-3.08,1.85-2.91,0-4.44-3.08-4.44-7.19s1.81-7.34,5.09-7.34c2.65,0,4.02,1.88,4.29,4.24h-2.23c-.21-.89-.69-1.93-2.2-1.93-1.94,0-2.62,2.35-2.62,5.04s.74,4.88,2.62,4.88c1.68,0,2.16-1.48,2.16-3.3v-.07h-2.32v-2.44h4.58v7.89Z"/>
  </g>
  <g>
    <path d="M923.49,264.17c1.28-.16,2.12-.82,2.12-2,0-1.27-.7-1.71-1.7-1.71-1.28,0-1.81.61-2.39,2.22-.91,2.58-2.08,3.46-4.13,3.46-2.62,0-4.05-1.65-4.05-3.77,0-2.67,1.76-3.8,4.04-3.93v2.23c-1.04.14-1.84.54-1.84,1.72,0,1,.59,1.49,1.57,1.49,1.05,0,1.35-.56,1.94-2.13,1.05-2.84,2.5-3.59,4.52-3.59,2.3,0,4.27,1.21,4.27,4.12,0,2.43-1.55,4-4.35,4.14v-2.24Z"/>
    <path d="M927.66,247.5v1.67c-.46.08-1.11.14-1.64.17,1.41.57,1.85,1.69,1.85,3.08,0,2.91-3.08,4.44-7.19,4.44s-7.34-1.81-7.34-5.09c0-2.65,1.88-4.02,4.24-4.29v2.23c-.89.21-1.93.69-1.93,2.2,0,1.94,2.35,2.62,5.04,2.62s4.88-.74,4.88-2.62c0-1.68-1.48-2.16-3.3-2.16h-.07v2.32h-2.44v-4.58h7.89Z"/>
    <path d="M919.14,233.85h2.13v7.83h-2.13v-7.83ZM923.67,233.85h2.14v7.83h-2.14v-7.83Z"/>
    <path d="M913.53,227.85v-7.13h2.38v4.9h3.58v-4.61h2.34v4.61h5.83v2.22h-14.14Z"/>
    <path d="M920.6,219.5c-1.75,0-2.88,0-3.62.03v-2.15c.46-.04,1.14-.06,1.87-.06-.9-.28-2.04-1.02-2.04-2.54h2.83c-.04,1.73.71,2.51,3.16,2.51h4.85v2.21h-7.06Z"/>
    <path d="M924.89,207.11c.72,0,2.01-.04,2.77-.12v1.93c-.32.06-.96.11-1.29.13.87.35,1.48,1.14,1.48,2.35,0,2.08-1.65,2.81-3.26,2.81-1.92,0-3.51-1.05-3.51-3.96v-.99h-.78c-.87,0-1.55.21-1.55,1.2s.63,1.21,1.42,1.29v2.13c-1.69-.09-3.4-.88-3.4-3.46,0-1.99.87-3.33,3.51-3.33h4.61ZM922.87,209.21v1.02c0,1.51.78,1.79,1.49,1.79s1.35-.34,1.35-1.18c0-1.32-1.11-1.63-2.62-1.63h-.22Z"/>
    <path d="M920.29,205.03c-2.11,0-2.82.02-3.31.03v-2.14c.36-.04.86-.06,1.27-.08-.86-.44-1.47-1.18-1.47-2.33s.72-1.8,1.66-2.1c-.85-.37-1.66-1.26-1.66-2.51,0-1.42.96-2.68,3.72-2.68h7.16v2.16h-6.71c-.96,0-1.89.27-1.89,1.21,0,1.02.92,1.43,2.51,1.43h6.08v2.16h-6.79c-.96,0-1.78.35-1.78,1.21,0,.96.75,1.44,2.63,1.44h5.95v2.18h-7.37Z"/>
    <path d="M922.95,189.41c1.31,0,2.7-.39,2.7-1.64,0-1-.79-1.31-1.26-1.43v-2.16c1.77.41,3.46,1.39,3.46,3.66,0,2.69-2.33,3.8-5.52,3.8-2.64,0-5.56-1.04-5.56-3.89s2.56-3.67,5.31-3.67c.14,0,.71.01.87.03v5.31ZM921.12,186.22c-1.2.03-2.24.42-2.24,1.55,0,1.25,1.29,1.56,2.24,1.6v-3.16Z"/>
    <path d="M927.66,169.55v1.67c-.46.08-1.11.14-1.64.17,1.41.57,1.85,1.69,1.85,3.08,0,2.91-3.08,4.44-7.19,4.44s-7.34-1.81-7.34-5.09c0-2.65,1.88-4.02,4.24-4.29v2.23c-.89.21-1.93.69-1.93,2.2,0,1.94,2.35,2.62,5.04,2.62s4.88-.74,4.88-2.62c0-1.68-1.48-2.16-3.3-2.16h-.07v2.32h-2.44v-4.58h7.89Z"/>
    <path d="M920.6,167.43c-1.75,0-2.88,0-3.62.03v-2.15c.46-.04,1.14-.06,1.87-.06-.9-.28-2.04-1.02-2.04-2.54h2.83c-.04,1.73.71,2.51,3.16,2.51h4.85v2.21h-7.06Z"/>
    <path d="M922.17,153.96c3.12,0,5.69,1.17,5.69,4.03s-2.74,3.96-5.63,3.96c-2.66,0-5.46-1.19-5.46-4.07,0-2.71,2.5-3.92,5.4-3.92ZM922.16,159.7c2.28,0,3.5-.62,3.5-1.79,0-1.11-1.22-1.72-3.47-1.72-2.12,0-3.22.57-3.22,1.78,0,1.12,1.24,1.73,3.19,1.73Z"/>
    <path d="M924.51,145.34c1.54,0,2.61-.02,3.15-.03v2.15c-.32.05-.78.07-1.28.08,1.12.52,1.47,1.27,1.47,2.31,0,1.68-1.34,2.6-3.74,2.6h-7.12v-2.19h6.65c1.12,0,1.9-.31,1.9-1.22s-.72-1.48-2.6-1.48h-5.96v-2.21h7.52Z"/>
    <path d="M920.31,143.25c-2.2,0-2.86.02-3.33.03v-2.15c.19-.03.88-.08,1.38-.08-.83-.34-1.59-1.14-1.59-2.34,0-1.76,1.43-2.65,3.89-2.65h7v2.21h-6.46c-1.21,0-2.11.23-2.11,1.28s.74,1.49,2.61,1.49h5.96v2.21h-7.35Z"/>
    <path d="M912.66,126.72h12.03c1.25,0,2.35-.01,2.98-.03v2.15c-.29.03-.91.08-1.26.08.93.4,1.46,1.02,1.46,2.36,0,2.14-2.22,3.25-5.52,3.25s-5.57-1.35-5.57-3.62c0-1.25.55-1.79.97-1.98h-5.09v-2.21ZM922.24,132.27c2,0,3.35-.53,3.35-1.72,0-1.44-1.24-1.72-3.33-1.72-2.29,0-3.2.36-3.2,1.65,0,1.09,1.05,1.79,3.18,1.79Z"/>
  </g>
  <g>
    <path d="M415.09,135.85c.16,1.28.82,2.12,2,2.12,1.27,0,1.71-.7,1.71-1.7,0-1.28-.61-1.81-2.22-2.39-2.58-.91-3.46-2.08-3.46-4.13,0-2.62,1.65-4.05,3.77-4.05,2.67,0,3.8,1.76,3.93,4.04h-2.23c-.14-1.04-.54-1.83-1.72-1.83-1,0-1.49.59-1.49,1.57,0,1.05.56,1.35,2.13,1.94,2.84,1.05,3.59,2.5,3.59,4.52,0,2.3-1.2,4.27-4.12,4.27-2.43,0-4-1.55-4.14-4.35h2.24Z"/>
    <path d="M431.76,140.03h-1.67c-.08-.46-.14-1.11-.17-1.64-.57,1.41-1.69,1.85-3.08,1.85-2.91,0-4.44-3.08-4.44-7.19s1.81-7.34,5.09-7.34c2.65,0,4.02,1.88,4.29,4.24h-2.22c-.21-.89-.69-1.93-2.2-1.93-1.94,0-2.62,2.35-2.62,5.04s.74,4.88,2.62,4.88c1.67,0,2.16-1.48,2.16-3.3v-.07h-2.32v-2.44h4.58v7.89Z"/>
  </g>
  <path class="cls-13" d="M1276.26,257.99h-4.84v3.8h5.34l-.27,2.36h-7.28v-14.14h7.25v2.38h-5.04v3.2h4.84v2.38Z"/>
  <path d="M273.24,133.86h-4.84v3.8h5.34l-.27,2.36h-7.28v-14.14h7.25v2.38h-5.04v3.2h4.84v2.38Z"/>
  <path class="cls-13" d="M1218.29,250.02h7.13v2.38h-4.9v3.58h4.61v2.34h-4.61v5.83h-2.22v-14.14Z"/>
  <path d="M368.24,125.89h7.13v2.38h-4.9v3.58h4.61v2.34h-4.61v5.83h-2.22v-14.14Z"/>
</svg>